<?xml version="1.0" encoding="UTF-8" standalone="no"?>
<!-- Created with Inkscape (http://www.inkscape.org/) -->

<svg
   xmlns:dc="http://purl.org/dc/elements/1.1/"
   xmlns:cc="http://creativecommons.org/ns#"
   xmlns:rdf="http://www.w3.org/1999/02/22-rdf-syntax-ns#"
   xmlns:svg="http://www.w3.org/2000/svg"
   xmlns="http://www.w3.org/2000/svg"
   xmlns:sodipodi="http://sodipodi.sourceforge.net/DTD/sodipodi-0.dtd"
   xmlns:inkscape="http://www.inkscape.org/namespaces/inkscape"
   width="300"
   height="300"
   viewBox="0 0 79.374999 79.374999"
   version="1.1"
   id="svg10184"
   inkscape:version="0.92.4 (5da689c313, 2019-01-14)"
   sodipodi:docname="delhi-capitals-team-ipl.svg">
  <defs
     id="defs10178">
    <linearGradient
       y2="279.08099"
       x2="145.99989"
       y1="16.469801"
       x1="145.99989"
       gradientUnits="userSpaceOnUse"
       id="SVGID_1_-0">
      <stop
         id="stop24684"
         style="stop-color:#2561AE"
         offset="0.1263" />
      <stop
         id="stop24686"
         style="stop-color:#255CA7"
         offset="0.2144" />
      <stop
         id="stop24688"
         style="stop-color:#264C93"
         offset="0.3427" />
      <stop
         id="stop24690"
         style="stop-color:#283374"
         offset="0.495" />
      <stop
         id="stop24692"
         style="stop-color:#282968"
         offset="0.5437" />
    </linearGradient>
  </defs>
  <sodipodi:namedview
     id="base"
     pagecolor="#ffffff"
     bordercolor="#666666"
     borderopacity="1.0"
     inkscape:pageopacity="0.0"
     inkscape:pageshadow="2"
     inkscape:zoom="2.8"
     inkscape:cx="117.54495"
     inkscape:cy="112.75214"
     inkscape:document-units="mm"
     inkscape:current-layer="layer1"
     showgrid="false"
     units="px"
     inkscape:window-width="1920"
     inkscape:window-height="1017"
     inkscape:window-x="-8"
     inkscape:window-y="-8"
     inkscape:window-maximized="1" />
  <metadata
     id="metadata10181">
    <rdf:RDF>
      <cc:Work
         rdf:about="">
        <dc:format>image/svg+xml</dc:format>
        <dc:type
           rdf:resource="http://purl.org/dc/dcmitype/StillImage" />
        <dc:title></dc:title>
      </cc:Work>
    </rdf:RDF>
  </metadata>
  <g
     inkscape:label="Layer 1"
     inkscape:groupmode="layer"
     id="layer1"
     transform="translate(0,-217.625)">
    <g
       id="g24927"
       transform="matrix(0.26296322,0,0,0.26296322,1.2386507,217.7543)">
      <path
         id="path24682"
         d="m 235.19,215.89 c -6.99,11.56 -15.17,22.39 -24.37,32.24 -9.23,9.82 -19.3,18.85 -30.24,26.71 -5.46,3.93 -28.14,16.82 -33.93,19.66 -5.8,-2.84 -55.09,-36.42 -64.35,-46.22 -9.24,-9.83 -17.43,-20.66 -24.4,-32.25 -7.07,-11.53 -12.81,-23.89 -17.16,-36.76 0.91,3.27 1.93,6.52 3.03,9.74 1.15,3.2 2.35,6.39 3.68,9.52 2.62,6.29 5.64,12.41 8.96,18.37 6.73,11.88 14.77,23.02 23.89,33.21 9.1,10.21 19.39,19.37 30.4,27.49 5.52,4.04 11.26,7.79 17.12,11.32 5.89,3.48 11.93,6.7 18.08,9.71 l 0.76,0.37 0.76,-0.37 c 6.14,-3.01 12.17,-6.24 18.05,-9.73 5.85,-3.54 11.57,-7.31 17.07,-11.37 5.51,-4.05 10.79,-8.42 15.85,-13.01 5.07,-4.59 9.88,-9.46 14.42,-14.56 9.08,-10.21 17.11,-21.34 23.86,-33.19 3.34,-5.94 6.38,-12.05 9.03,-18.32 1.36,-3.12 2.57,-6.3 3.75,-9.49 1.12,-3.21 2.16,-6.44 3.1,-9.7 -4.46,12.82 -10.27,25.13 -17.36,36.63 z"
         class="st0"
         inkscape:connector-curvature="0"
         style="fill:#faad1b" />
      <linearGradient
         y2="279.08099"
         x2="145.99989"
         y1="16.469801"
         x1="145.99989"
         gradientUnits="userSpaceOnUse"
         id="linearGradient10754">
        <stop
           id="stop10744"
           style="stop-color:#2561AE"
           offset="0.1263" />
        <stop
           id="stop10746"
           style="stop-color:#255CA7"
           offset="0.2144" />
        <stop
           id="stop10748"
           style="stop-color:#264C93"
           offset="0.3427" />
        <stop
           id="stop10750"
           style="stop-color:#283374"
           offset="0.495" />
        <stop
           id="stop10752"
           style="stop-color:#282968"
           offset="0.5437" />
      </linearGradient>
      <path
         style="fill:url(#SVGID_1_-0)"
         id="path24695"
         d="m 261.06,142.5 5.19,0.59 0.01,-13.11 14.77,-14.77 H 258.3 V 85.17 C 239.19,74.64 214.44,62.9 186.49,56.59 c 0.03,0.19 0.08,0.38 0.12,0.57 l 2.08,2.33 6.65,4.35 1.65,10.35 0.27,0.45 c 24.96,5.16 40.92,17.09 51.12,28.08 v 0.51 C 238.05,92.15 218.17,83.37 194.43,78.7 l -1.78,-2.9 -1.47,-9.26 -5.47,-3.58 -3.37,-3.79 C 180.19,43.04 168.61,32.77 153.7,29.62 l -0.16,-2.02 -1.57,-1.38 v -2.59 c 2.81,-0.68 4.66,-1.81 4.66,-3.09 0,-1.29 -1.85,-2.42 -4.66,-3.09 v -2.76 l -4.01,-2.24 -0.21,-1.46 h 1.42 l 0.6,-2.07 h -1.59 L 145.92,1 143.67,8.92 h -1.59 l 0.61,2.07 h 1.42 l -0.21,1.46 -4.01,2.24 v 2.76 c -2.81,0.68 -4.65,1.81 -4.65,3.09 0,1.28 1.85,2.42 4.65,3.09 v 2.59 l -1.56,1.38 -0.16,2.36 C 123.94,33.6 113,43.55 110.92,59.16 l -3.37,3.79 -5.47,3.58 -1.47,9.26 -2.12,3.25 C 77.16,83.53 58.09,91.56 44.86,103 v -0.28 C 57.48,91.8 73.08,79.99 95.7,75 l 0.57,-0.87 1.64,-10.29 6.65,-4.35 2.07,-2.33 c 0.04,-0.23 0.1,-0.46 0.14,-0.69 -27.96,6.16 -52.72,17.64 -71.83,28.05 v 30.69 H 10.97 l 16.25,14.91 v 42.45 l 13.46,6.35 c 9.76,33.38 35.94,82.1 105.94,115.75 70.17,-33.74 96.31,-82.63 106.01,-116.01 l 13.92,-6.09 v -23.15 l -1.18,-1.49 c -1.73,-2.21 -3.03,-3.85 -4.31,-5.43 z"
         class="st1"
         inkscape:connector-curvature="0" />
      <path
         id="path24697"
         d="m 227.68,213.83 c -6.4,10.58 -13.88,20.49 -22.31,29.51 -8.45,8.98 -17.66,17.25 -27.68,24.44 -5,3.6 -10.14,7 -15.43,10.16 -5.09,2.99 -10.3,5.76 -15.61,8.36 -5.31,-2.6 -10.54,-5.36 -15.64,-8.35 -5.3,-3.15 -10.46,-6.54 -15.48,-10.12 -10.04,-7.17 -19.31,-15.39 -27.79,-24.36 -8.46,-9 -15.96,-18.91 -22.33,-29.52 -6.47,-10.56 -11.73,-21.87 -15.71,-33.65 0.84,2.99 1.77,5.96 2.77,8.91 1.05,2.93 2.15,5.85 3.37,8.71 2.4,5.75 5.16,11.36 8.2,16.81 6.16,10.87 13.52,21.07 21.87,30.39 8.33,9.35 17.74,17.72 27.82,25.16 5.06,3.7 10.3,7.13 15.67,10.36 5.39,3.19 10.92,6.13 16.54,8.89 l 0.7,0.34 0.7,-0.34 c 5.62,-2.75 11.14,-5.71 16.52,-8.9 5.36,-3.24 10.59,-6.69 15.62,-10.41 5.04,-3.71 9.87,-7.7 14.51,-11.91 4.64,-4.2 9.05,-8.65 13.2,-13.33 8.31,-9.34 15.66,-19.53 21.84,-30.37 3.05,-5.44 5.83,-11.03 8.27,-16.76 1.24,-2.86 2.35,-5.77 3.43,-8.68 1.03,-2.94 1.98,-5.9 2.84,-8.88 -4.08,11.74 -9.4,23.01 -15.89,33.54 z"
         class="st2"
         inkscape:connector-curvature="0"
         style="fill:#ffffff" />
      <g
         id="g24711">
        <g
           id="g24701">
          <path
             id="path24699"
             d="m 105.04,74.09 0.7,-5.51 5.26,-2.98 3.56,-3.89 c 0,0 1.29,-22.23 25.65,-28.53 0,0 -14.81,3.79 -19.6,21.06 -1.33,4.81 0.59,10.21 0.59,10.21 l -0.54,10.53 c 0,0 -11.38,1.06 -17.63,3.58 z"
             class="st2"
             inkscape:connector-curvature="0"
             style="fill:#ffffff" />
        </g>
        <g
           id="g24705">
          <path
             id="path24703"
             d="m 154.01,33.54 c 0,0 15.11,1.1 20.17,13.51 0,0 -8.01,-9.35 -20.17,-13.51 z"
             class="st2"
             inkscape:connector-curvature="0"
             style="fill:#ffffff" />
        </g>
        <g
           id="g24709">
          <path
             id="path24707"
             d="m 142.59,33.17 c 0,0 -9.93,7.15 -8.63,40.83 l 3.98,-0.23 c 0,0.01 -3.52,-30.33 4.65,-40.6 z"
             class="st2"
             inkscape:connector-curvature="0"
             style="fill:#ffffff" />
        </g>
      </g>
      <g
         id="g24783">
        <g
           id="g24735">
          <g
             id="g24725">
            <g
               id="g24723">
              <path
                 id="path24713"
                 d="m 97.04,90.64 c 6.1,-1.37 9.18,-1.95 15.35,-2.9 2.45,1.51 3.68,2.21 6.15,3.59 0.04,7.94 0.06,9.54 0.1,17.49 -2.32,1.66 -3.47,2.53 -5.79,4.39 -6.32,0 -9.48,0 -15.8,0 -0.01,-11.69 -0.01,-10.88 -0.01,-22.57 z m 12.5,2.9 c -1.47,0.2 -2.21,0.3 -3.68,0.52 0.02,6.22 0.03,7.72 0.06,13.93 1.48,-0.05 2.21,-0.07 3.69,-0.12 -0.02,-6.38 -0.04,-7.95 -0.07,-14.33 z"
                 class="st2"
                 inkscape:connector-curvature="0"
                 style="fill:#ffffff" />
              <path
                 id="path24715"
                 d="m 122.38,86.44 c 6.64,-0.72 9.97,-0.95 16.64,-1.17 0,2.6 0.01,3.75 0.01,5.89 -3.04,0.08 -4.55,0.14 -7.58,0.31 0.01,2.12 0.01,3.07 0.02,4.94 2.51,-0.11 3.76,-0.15 6.27,-0.21 0,1.9 0.01,2.79 0.01,4.65 -2.51,0.04 -3.76,0.07 -6.26,0.15 0.01,2.42 0.01,3.61 0.02,6.4 3.11,-0.04 4.66,-0.05 7.77,-0.07 0,2.15 0.01,3.29 0.01,5.89 -6.71,0 -10.07,0 -16.78,0 -0.06,-13.38 -0.08,-13.41 -0.13,-26.78 z"
                 class="st2"
                 inkscape:connector-curvature="0"
                 style="fill:#ffffff" />
              <path
                 id="path24717"
                 d="m 141.92,85.19 c 3.63,-0.08 5.45,-0.08 9.08,-0.01 -0.01,11.26 -0.01,12.84 -0.03,22.13 3.22,0.01 4.83,0.02 8.05,0.06 -0.01,2.13 -0.01,3.26 -0.02,5.85 -6.82,0 -10.23,0 -17.05,0 -0.02,-13.88 -0.02,-14.16 -0.03,-28.03 z"
                 class="st2"
                 inkscape:connector-curvature="0"
                 style="fill:#ffffff" />
              <path
                 id="path24719"
                 d="m 173.85,97.82 c 0.02,-3.81 0.03,-5.66 0.05,-11.03 3.57,0.43 5.34,0.68 8.89,1.26 -0.05,12.73 -0.07,12.44 -0.12,25.17 -3.56,0 -5.34,0 -8.91,0 0.02,-5.37 0.03,-7.22 0.05,-11.03 -1.48,-0.07 -2.22,-0.11 -3.7,-0.17 -0.02,3.88 -0.03,5.76 -0.05,11.2 -3.61,0 -5.41,0 -9.01,0 0.04,-13.7 0.06,-13.91 0.09,-27.61 3.62,0.23 5.44,0.39 9.05,0.76 -0.02,5.44 -0.03,7.32 -0.05,11.2 1.49,0.09 2.23,0.14 3.71,0.25 z"
                 class="st2"
                 inkscape:connector-curvature="0"
                 style="fill:#ffffff" />
              <path
                 id="path24721"
                 d="m 187.28,88.82 c 3.58,0.65 5.37,1.02 8.92,1.82 0,11.69 0,10.89 0,22.58 -3.61,0 -5.41,0 -9.01,0 0.03,-12.42 0.05,-11.98 0.09,-24.4 z"
                 class="st2"
                 inkscape:connector-curvature="0"
                 style="fill:#ffffff" />
            </g>
          </g>
          <g
             id="g24729">
            <path
               id="path24727"
               d="m 187.29,88.82 c 0,0 4.47,0.76 10.65,2.16 3.15,0.71 5.97,1.48 5.97,1.48 l -10.18,4.28 z"
               class="st2"
               inkscape:connector-curvature="0"
               style="fill:#ffffff" />
          </g>
          <g
             id="g24733">
            <path
               id="path24731"
               d="m 106.23,88.82 c 0,0 -4.47,0.76 -10.65,2.16 -3.15,0.71 -5.97,1.48 -5.97,1.48 l 10.18,4.28 z"
               class="st2"
               inkscape:connector-curvature="0"
               style="fill:#ffffff" />
          </g>
        </g>
        <g
           id="g24781">
          <g
             id="g24769">
            <g
               id="g24767">
              <g
                 id="g24741">
                <g
                   id="g24739">
                  <path
                     id="path24737"
                     d="m 70.54,120.06 c -3.33,14.86 -5.16,30.03 -8.04,44.99 4.68,-1.76 7.04,-2.61 11.77,-4.18 0.45,-2.64 0.68,-4.12 1.13,-7.18 2.8,-0.8 4.2,-1.18 7,-1.89 0.35,2.7 0.52,3.98 0.87,6.3 4.78,-1.35 7.17,-1.95 11.93,-2.87 -2.7,-11.67 -4.91,-23.44 -7.39,-35.16 H 70.54 Z m 5.84,25.58 c 0.66,-5.88 1.34,-11.75 2.04,-17.62 0.46,-0.02 0.69,-0.03 1.16,-0.06 0.69,5.53 1.35,11.07 2.04,16.6 -2.1,0.42 -3.15,0.63 -5.24,1.08 z"
                     class="st2"
                     inkscape:connector-curvature="0"
                     style="fill:#ffffff" />
                </g>
              </g>
              <g
                 id="g24747">
                <g
                   id="g24745">
                  <path
                     id="path24743"
                     d="m 170.92,120.06 c -8.42,0 -16.84,0 -25.26,0 0,2.43 0,3.65 0,6.08 2.71,0 4.06,0 6.77,0 0,8.75 0.01,17.5 0.01,26.25 4.74,0.03 7.1,0.06 11.84,0.16 -0.01,-8.8 -0.03,-17.59 -0.04,-26.39 2.68,0.01 4.02,0.02 6.7,0.03 -0.01,-2.44 -0.02,-3.67 -0.02,-6.13 z"
                     class="st2"
                     inkscape:connector-curvature="0"
                     style="fill:#ffffff" />
                </g>
              </g>
              <g
                 id="g24753">
                <g
                   id="g24751">
                  <path
                     id="path24749"
                     d="m 219.33,120.06 h -11.95 c -0.14,12.26 -0.26,24.52 -0.4,36.77 7.42,2.03 14.64,4.38 21.87,6.98 0.08,-2.63 0.13,-4.16 0.21,-7.4 -4.2,-1.33 -6.28,-1.97 -10.42,-3.14 0.23,-11.07 0.42,-22.14 0.69,-33.21 z"
                     class="st2"
                     inkscape:connector-curvature="0"
                     style="fill:#ffffff" />
                </g>
              </g>
              <g
                 id="g24759">
                <g
                   id="g24757">
                  <path
                     id="path24755"
                     d="m 98.58,120.06 c -0.07,11.56 -0.13,23.12 -0.21,34.69 4.79,-0.83 7.17,-1.12 11.9,-1.37 0.01,-4.53 0.02,-6.79 0.04,-11.32 3.08,-0.11 4.63,-0.15 7.71,-0.24 3.23,-1.97 4.85,-2.94 8.08,-4.86 0.01,-4.85 0.01,-7.27 0.02,-12.12 -3.22,-1.9 -4.83,-2.85 -8.05,-4.78 z m 16.08,15.63 c -1.73,0.04 -2.59,0.06 -4.32,0.1 0.01,-3.78 0.02,-5.68 0.03,-9.46 1.73,-0.02 2.59,-0.02 4.32,-0.04 -0.01,3.76 -0.02,5.64 -0.03,9.4 z"
                     class="st2"
                     inkscape:connector-curvature="0"
                     style="fill:#ffffff" />
                </g>
              </g>
              <g
                 id="g24765">
                <g
                   id="g24763">
                  <path
                     id="path24761"
                     d="m 129.98,152.62 c 4.79,-0.12 7.19,-0.16 11.98,-0.2 0.01,-10.79 0.01,-21.57 0.02,-32.36 h -11.95 c -0.01,10.85 -0.03,21.7 -0.05,32.56 z"
                     class="st2"
                     inkscape:connector-curvature="0"
                     style="fill:#ffffff" />
                </g>
              </g>
            </g>
          </g>
          <g
             id="g24775">
            <g
               id="g24773">
              <path
                 id="path24771"
                 d="m 190.7,148.48 c -2.72,-0.2 -4.08,-0.3 -6.8,-0.47 -0.38,2.43 -0.57,3.6 -0.95,5.71 -4.6,-0.34 -6.9,-0.49 -11.5,-0.72 2.59,-10.92 4.66,-21.98 7.05,-32.95 6.78,0 10.17,0 16.95,0 2.89,11.81 5,23.79 7.77,35.62 -4.61,-0.55 -6.92,-0.79 -11.54,-1.23 -0.4,-2.21 -0.59,-3.43 -0.98,-5.96 z m -4.32,-21.54 c -0.67,5.58 -1,8.76 -1.67,14.6 2.04,0.1 3.06,0.15 5.1,0.27 -0.92,-5.99 -1.38,-9.22 -2.29,-14.85 -0.46,-0.01 -0.68,-0.01 -1.14,-0.02 z"
                 class="st2"
                 inkscape:connector-curvature="0"
                 style="fill:#ffffff" />
            </g>
          </g>
          <path
             id="path24777"
             d="m 243.88,138.78 c 0.09,-4.43 0.13,-6.62 0.22,-10.56 2,0.11 3,0.17 5,0.29 -0.05,2.69 -0.07,4.14 -0.12,7.1 4.68,0.54 7.03,0.81 11.8,1.35 0,-4.26 0,-6.33 0.01,-10.01 l 8.75,-6.89 h -16.81 v 0 h -12.45 c -3.24,2.16 -4.86,3.36 -8.09,5.72 -0.14,5.07 -0.21,8.06 -0.35,13.94 3.23,3.33 4.84,5.15 8.11,8.95 3.48,1.12 5.23,1.71 8.78,2.91 -0.08,4.74 -0.11,7.09 -0.19,11.29 -2.06,-0.69 -3.09,-1.04 -5.12,-1.72 0.06,-2.56 0.09,-3.92 0.14,-6.72 -4.87,-1.37 -7.26,-2.05 -12,-3.33 -0.08,3.34 -0.12,4.97 -0.2,7.94 3.01,3.48 4.52,5.26 7.6,8.62 5.33,2.07 8.04,3.15 13.66,5.31 3.36,-1.02 5.05,-1.74 8.45,-3.62 v -18.03 c -3.48,-4.41 -5.16,-6.54 -8.49,-10.45 -3.51,-0.86 -5.25,-1.28 -8.7,-2.09 z"
             class="st2"
             inkscape:connector-curvature="0"
             style="fill:#ffffff" />
          <path
             id="path24779"
             d="m 40.47,120.06 v 0 H 24.38 l 8.33,6.9 c -0.01,0.01 -0.01,0.01 -0.02,0.02 0,14.18 0,28.35 0,42.53 3.2,1.95 4.8,2.69 8.02,3.72 4.72,-1.85 7.12,-2.82 11.96,-4.72 3.17,-3.4 4.78,-5.22 7.99,-8.79 0.08,-4.88 0.12,-7.73 0.2,-13.38 -4.64,1.03 -6.95,1.57 -11.54,2.64 -0.06,5.32 -0.09,7.99 -0.15,12.69 -2.04,0.69 -3.06,1.04 -5.09,1.73 0.11,-11.59 0.21,-23.17 0.32,-34.76 2.06,-0.11 3.09,-0.17 5.16,-0.28 -0.05,3.85 -0.07,5.98 -0.12,10.29 4.6,-0.64 6.92,-0.97 11.56,-1.6 0.07,-4.71 0.1,-7.04 0.17,-11.15 -3.13,-2.4 -4.69,-3.62 -7.81,-5.82 H 40.47 Z"
             class="st2"
             inkscape:connector-curvature="0"
             style="fill:#ffffff" />
        </g>
      </g>
      <g
         id="g24925">
        <g
           id="g24847">
          <path
             id="path24785"
             d="m 165.71,170.22 c 0,0 2.22,1.01 4.32,2.89 0,0 4.7,-2.02 2.79,-9.04 0.11,3.36 -2.4,5.79 -7.11,6.15 z"
             class="st2"
             inkscape:connector-curvature="0"
             style="fill:#ffffff" />
          <path
             id="path24787"
             d="m 120.55,163.78 c 0,0 3.86,3.49 5.05,3.78 l -2.44,0.35 c 0,0 4.05,3.04 6.68,2.84 l -3.32,2.14 c -0.01,0 -4.95,-3.91 -5.97,-9.11 z"
             class="st2"
             inkscape:connector-curvature="0"
             style="fill:#ffffff" />
          <path
             id="path24789"
             d="m 123.71,192.45 c 0,0 -0.46,13.28 5.08,18.83 0,0 -5.33,-4.68 -7.43,-12.56 z"
             class="st2"
             inkscape:connector-curvature="0"
             style="fill:#ffffff" />
          <path
             id="path24791"
             d="m 169.86,194.79 c 0,0 -1.51,12.07 -7.25,17.42 0,0 6.31,-3.86 8.68,-11.67 z"
             class="st2"
             inkscape:connector-curvature="0"
             style="fill:#ffffff" />
          <path
             id="path24793"
             d="m 173.18,161.17 c -2.56,-0.59 -4.69,1.9 -5.35,2.78 -0.66,0.88 -1.17,2.2 -4.47,3.44 3.37,0.22 8.94,-1.9 9.45,-2.71 0.15,1.54 0.16,4.12 -2.78,8.42 l 2.49,1.98 c 0,0 4.76,-5.86 0.66,-13.91 z"
             class="st3"
             inkscape:connector-curvature="0"
             style="fill:#d71921" />
          <path
             id="path24795"
             d="m 148.79,209.89 c 0.58,3.19 7.33,2.98 9.73,1.86 2.4,-1.12 3.23,-4.43 3.23,-4.43 0,0 -0.29,0.29 -1.7,1.12 -1.41,0.83 -3.64,0.91 -3.64,0.91 0,0 3.15,-1.37 4.6,-3.65 1.45,-2.28 0.87,-4.06 0.87,-4.06 0,0 -1.28,2.53 -3.11,3.98 -1.82,1.45 -5.43,2.07 -5.43,2.07 0,0 4.47,-2.4 5.76,-4.18 1.28,-1.78 1.62,-3.93 1.62,-3.93 0,0 -6.83,4.51 -5.92,3.85 0.91,-0.66 4.47,-4.72 4.47,-4.72 l -3.06,-0.58 -2.11,1.45 0.14,0.4 c 0.21,0.6 0.18,1.25 -0.07,1.83 l -1.98,4.56 c -0.13,0.31 -0.33,0.59 -0.57,0.82 z"
             class="st2"
             inkscape:connector-curvature="0"
             style="fill:#ffffff" />
          <path
             id="path24797"
             d="m 151.37,237.33 c -0.65,0.37 -2.27,0.97 -4.45,0.96 -2.98,-0.02 -5.81,-0.15 -7.29,-1.47 -2.34,-2.08 -3.38,-4.74 -3.38,-4.74 0.04,1.37 -0.15,2.81 -0.91,3.73 0,0 4.22,2.38 4.87,6.2 0.5,2.91 11.56,3.4 12.37,-0.64 0.74,-3.68 2.41,-5.46 3.97,-5.56 -0.61,-1.37 -0.7,-3.73 -0.7,-3.73 0,0 -2.64,4.2 -4.48,5.25 z"
             class="st2"
             inkscape:connector-curvature="0"
             style="fill:#ffffff" />
          <path
             id="path24799"
             d="m 168.98,191.33 c 0,0 0.07,-6.48 -4.76,-8.01 0.07,1.9 -1.03,3.91 -1.46,4.57 1.46,-0.66 -0.85,2.17 -0.95,3.2 -0.2,2.05 -1.88,3.64 -5.31,3.78 -0.62,-0.07 -1.03,-0.24 -1.23,-0.31 l 3.99,3.55 c 4.01,-0.74 5.15,-5.52 5.19,-5.83 0.03,-0.25 0.39,0.51 0.7,1.94 0.07,0.22 0.73,5.2 0.05,8.75 2.65,-5.03 1.82,-12.04 1.82,-12.04 -0.16,-0.76 -0.33,-1.26 -0.38,-1.43 -0.23,-0.66 2.34,1.83 2.34,1.83 z"
             class="st3"
             inkscape:connector-curvature="0"
             style="fill:#d71921" />
          <path
             id="path24801"
             d="m 134.22,198.67 -0.17,0.03 c 0,0 0.63,0.71 1.42,1.59 1.1,1.22 2.53,2.75 3.06,3.13 0.62,0.45 -2.3,-1.46 -4.26,-2.75 -0.94,-0.62 -1.67,-1.1 -1.67,-1.1 0,0 0.09,0.56 0.34,1.35 0.24,0.75 0.64,1.71 1.27,2.59 1.28,1.78 5.76,4.18 5.76,4.18 0,0 -3.6,-0.62 -5.43,-2.07 -1.82,-1.45 -3.11,-3.98 -3.11,-3.98 0,0 -0.58,1.78 0.87,4.06 1.45,2.28 4.6,3.65 4.6,3.65 0,0 -2.24,-0.08 -3.65,-0.91 -1.41,-0.83 -1.7,-1.12 -1.7,-1.12 0,0 0.83,3.31 3.23,4.43 2.4,1.12 9.15,1.33 9.73,-1.86 l -2.82,-2.71 c -0.24,-0.23 -0.43,-0.51 -0.57,-0.82 l -1.98,-4.56 c -0.25,-0.58 -0.28,-1.23 -0.07,-1.83 l 0.14,-0.4 -1.22,-0.84 -0.89,-0.61 -2.69,0.51 z"
             class="st2"
             inkscape:connector-curvature="0"
             style="fill:#ffffff" />
          <path
             id="path24803"
             d="m 118.33,183.09 c -1.63,3.29 -0.93,6.23 -6.53,11.23 0.3,0.2 1.12,-0.2 1.52,-0.2 -2.74,3.15 -2.44,7.82 -2.24,9.04 0.51,0.1 2.03,-0.81 2.54,-1.02 0.51,-0.2 -1.02,6.1 2.44,11.48 0.41,-0.81 0.91,-0.81 1.12,-1.83 0.22,0.1 0.47,0.23 0.73,0.39 3.28,1.93 9.21,8.07 11.56,12.11 0.71,-0.3 1.52,-0.81 1.52,-0.81 0,0 0.31,1.69 1.5,3.92 0.8,1.5 3.55,4.06 3.55,4.06 -0.31,-2.55 -1.71,-7.3 -1.39,-9.81 -6.1,-2.44 -11.69,-8.84 -12.8,-10.47 0.81,0.41 2.13,0.2 2.44,0.51 -0.13,-0.13 -1.89,-1.87 -3.74,-4.15 -1.83,-2.26 -3.75,-5.05 -4.29,-7.33 0,0 4.47,-5.79 4.57,-10.87 0.05,-2.29 0.73,-5.1 1.93,-7.58 0.78,-1.62 1.79,-3.11 2.98,-4.2 -5.43,1.39 -7.39,5.48 -7.41,5.53 z"
             class="st2"
             inkscape:connector-curvature="0"
             style="fill:#ffffff" />
          <g
             id="g24809">
            <path
               id="path24805"
               d="m 157.09,192.08 c 0.18,0.26 0.48,0.43 0.82,0.43 0.53,0 0.95,-0.41 0.99,-0.93 0.72,-0.3 1.35,-0.93 1.78,-1.46 0.06,0.4 0.11,1.71 -1.56,2.77 -1.99,1.26 -3.48,-0.41 -3.48,-0.41 0.64,0.01 1.08,-0.15 1.45,-0.4 z"
               class="st3"
               inkscape:connector-curvature="0"
               style="fill:#d71921" />
            <path
               id="path24807"
               d="m 158.89,191.59 c 0,-0.02 0.01,-0.04 0.01,-0.07 0,-0.34 -0.17,-0.64 -0.43,-0.82 0.86,-0.83 2.18,-0.69 2.18,-0.69 0,0 0.01,0.05 0.02,0.12 -0.43,0.52 -1.06,1.15 -1.78,1.46 z"
               class="st2"
               inkscape:connector-curvature="0"
               style="fill:#ffffff" />
          </g>
          <g
             id="g24815">
            <path
               id="path24811"
               d="m 136.29,192.08 c -0.18,0.26 -0.48,0.43 -0.82,0.43 -0.53,0 -0.95,-0.41 -0.99,-0.93 -0.72,-0.3 -1.35,-0.93 -1.78,-1.46 -0.06,0.4 -0.11,1.71 1.56,2.77 1.99,1.26 3.48,-0.41 3.48,-0.41 -0.65,0.01 -1.09,-0.15 -1.45,-0.4 z"
               class="st3"
               inkscape:connector-curvature="0"
               style="fill:#d71921" />
            <path
               id="path24813"
               d="m 134.48,191.59 c 0,-0.02 -0.01,-0.04 -0.01,-0.07 0,-0.34 0.17,-0.64 0.43,-0.82 -0.86,-0.83 -2.18,-0.69 -2.18,-0.69 0,0 -0.01,0.05 -0.02,0.12 0.43,0.52 1.06,1.15 1.78,1.46 z"
               class="st2"
               inkscape:connector-curvature="0"
               style="fill:#ffffff" />
          </g>
          <path
             id="path24817"
             d="m 136.08,213.67 c 0.04,1.14 0.51,4.03 3.35,6.08 -0.91,-2.96 0.32,-6.08 0.32,-6.08 0,0 -2.6,0.36 -3.67,0 z"
             class="st2"
             inkscape:connector-curvature="0"
             style="fill:#ffffff" />
          <path
             id="path24819"
             d="m 155.86,213.67 c -1.07,0.36 -3.67,0 -3.67,0 0,0 1.22,3.12 0.32,6.08 2.84,-2.05 3.31,-4.93 3.35,-6.08 z"
             class="st2"
             inkscape:connector-curvature="0"
             style="fill:#ffffff" />
          <path
             id="path24821"
             d="m 141.02,213.9 c 0,0 4.32,-0.83 5.67,-0.83 1.52,0 4.79,0.87 4.79,0.87 0,0 0.72,1.68 0.28,2.69 0,0 -0.37,-1.34 -0.83,-1.34 -0.16,0 -2.69,-0.02 -4.24,0 -1.75,0.02 -5.31,0 -5.43,0 -0.41,-0.01 -0.8,1.36 -0.8,1.33 -0.08,-0.74 -0.07,-2.59 0.56,-2.72 z"
             class="st2"
             inkscape:connector-curvature="0"
             style="fill:#ffffff" />
          <g
             id="g24833">
            <path
               id="path24823"
               d="m 138.64,234.3 2.41,1.14 c -0.32,-0.43 -1.89,-3.75 -1.54,-6.08 -1.86,3.76 -0.87,4.94 -0.87,4.94 z"
               class="st2"
               inkscape:connector-curvature="0"
               style="fill:#ffffff" />
            <path
               id="path24825"
               d="m 152.89,234.3 c 0,0 0.99,-1.18 -0.87,-4.93 0.36,2.33 -1.22,5.64 -1.54,6.08 z"
               class="st2"
               inkscape:connector-curvature="0"
               style="fill:#ffffff" />
            <path
               id="path24827"
               d="m 143.38,220.19 3.25,5.89 -0.41,-5.97 c 0,0 3.48,1.28 4.57,5.36 1.08,4.04 0.81,4.93 -3.29,5.36 -7.28,0 -7.2,-1.79 -7.2,-1.79 -0.27,-3.75 3.08,-8.85 3.08,-8.85 z"
               class="st3"
               inkscape:connector-curvature="0"
               style="fill:#d71921" />
            <g
               id="g24831">
              <path
                 id="path24829"
                 d="m 149.52,235.27 c 0,0 -2.04,0.34 -3.83,0.33 -2.19,-0.02 -3.34,-0.35 -3.74,-0.49 -0.12,-0.04 -0.21,-0.13 -0.25,-0.24 -0.16,-0.39 -0.47,-1.31 -0.12,-2.22 0,0 0.21,1.11 0.6,1.11 0.14,0 7.1,-0.05 7.2,-0.05 0.34,0.01 0.67,-1.08 0.68,-1.06 0.18,0.7 -0.01,2.52 -0.54,2.62 z"
                 class="st2"
                 inkscape:connector-curvature="0"
                 style="fill:#ffffff" />
            </g>
          </g>
          <path
             id="path24835"
             d="m 164.22,183.31 c -1.39,2.15 -2.26,4.66 -2.26,4.66 0.15,2.74 -0.83,4.31 -1.56,5.09 -0.15,0.16 -0.32,0.31 -0.51,0.42 -2.18,1.37 -4.44,1.04 -4.63,1.07 0,0 2.71,1.52 5.42,0.01 1.32,-0.74 1.36,-3.23 1.36,-3.23 3,-2.23 2.18,-8.02 2.18,-8.02 z"
             class="st2"
             inkscape:connector-curvature="0"
             style="fill:#ffffff" />
          <path
             id="path24837"
             d="m 154.89,169.8 c 1.17,1.32 1.62,1.79 2,3.05 -4.77,-3.93 -13.91,-5.31 -19.7,0.94 2.73,-6.63 14.27,-8.1 17.99,-8.24 0,0 -8.89,-3.86 -19.78,1.15 -0.9,0.41 -1.81,0.89 -2.73,1.43 -0.72,0.42 -4.68,-1.15 -6.22,-2.95 -0.01,-0.01 -0.02,-0.02 -0.03,-0.03 -2.32,-2.25 -3.95,-4 -6.4,-3.96 -1.2,1.36 -1.87,4.25 -1.66,6.96 0.21,2.72 0.95,5.48 2.38,6.76 0.75,-0.7 2.44,-1.93 2.44,-1.93 0,0 -2.09,-1.86 -2.63,-5.22 -0.11,-0.66 -0.16,-1.36 -0.12,-2.13 0.02,-0.35 0.15,-1.03 0.21,-1.41 0.17,0.32 0.84,0.96 1.18,1.27 1.05,0.92 2.61,1.69 3.2,1.88 0.02,0.01 0.05,0.02 0.06,0.02 0.71,0.2 -2.11,0.41 -2.11,0.41 0,0 1.73,2.34 5.49,3.25 0.13,0.03 -3.01,1.9 -9.51,11.05 0.88,-0.97 1.67,-1.8 2.73,-2.53 1.19,-0.81 4.03,-1.98 4.03,-1.98 0.79,-0.7 1.66,-1.22 2.6,-1.52 -1.42,1.52 -2.3,3.19 -2.84,4.85 -1.61,5.03 0.01,9.99 -0.14,10.45 -0.2,0.61 2.24,-2.03 2.24,-2.03 0,0 -0.42,1.27 -0.64,3.19 -0.35,1.99 -0.54,5.28 0.81,9.04 0.28,0.79 0.63,1.59 1.06,2.41 -0.18,-0.92 -0.28,-1.82 -0.33,-2.68 -0.15,-2.45 0.37,-6.87 0.36,-6.89 1.12,1.8 3.1,2.91 5.63,3.6 l 3.67,-3.43 c -0.59,0.22 -3.06,0.67 -4.38,-0.58 -0.07,0.39 -0.21,0.47 -0.16,1.05 0,0 -2.41,-0.66 -2.19,-3.74 -2.08,-2.93 -1.17,-3.81 0.07,-3.37 -0.59,-1.38 -2.59,-3.99 -2.19,-8.5 0.04,-0.5 0.11,-1.03 0.22,-1.58 0,0 0.13,-0.43 0.48,-1.11 -0.17,0.37 -0.38,2.08 -0.31,2.52 0.95,5.89 6.09,9.98 6.02,9.36 -0.07,-0.66 0.56,-1.36 -0.25,-2.17 0.95,0.07 1.9,1.06 3.07,3.63 0.32,0.67 3.24,2.82 3.24,2.82 l 0.02,0.06 2.17,1.52 -3.58,-0.68 c -0.23,-0.04 -0.46,-0.02 -0.67,0.08 l -1.55,0.69 1.85,0.39 c 0.28,0.06 0.53,0.19 0.73,0.39 l 2.31,2.27 -2.84,-1.31 -0.84,-0.26 c -0.36,-0.11 -0.74,-0.05 -1.05,0.16 l -1.35,0.92 1.55,-0.03 c 0.38,-0.01 0.75,0.14 1.01,0.42 l 1.16,1.2 -0.26,1.34 c -0.09,0.44 -0.06,0.88 0.08,1.31 l 0.55,1.74 c 0.1,0.32 0.32,0.59 0.62,0.74 l 4.32,2.29 c 0.47,0.25 1.04,0.25 1.51,0 l 4.28,-2.28 c 0.29,-0.16 0.52,-0.42 0.62,-0.74 l 0.55,-1.74 c 0.13,-0.42 0.16,-0.87 0.08,-1.31 l -0.26,-1.34 1.57,-1.29 c 0.19,-0.16 0.43,-0.24 0.68,-0.24 l 1.39,0.01 -1.41,-0.96 c -0.25,-0.17 -0.57,-0.21 -0.85,-0.09 l -3.73,1.48 2.34,-2.3 c 0.18,-0.18 0.41,-0.3 0.65,-0.35 l 1.89,-0.4 -1.67,-0.74 c -0.13,-0.06 -0.28,-0.08 -0.42,-0.05 l -3.71,0.7 2.11,-1.52 2.27,-0.33 0.15,-0.08 c 0.01,-0.01 0.05,-0.06 0.05,-0.07 0.19,-0.34 -0.05,-1.97 0.2,-2.17 0,0.02 0,0.04 0,0.06 0.29,0.07 1.65,-2.88 3.85,-4.23 -0.66,0.88 -0.62,1.78 -0.23,2.23 3.71,-1.44 5.28,-7.78 5.43,-9.68 -0.03,-0.03 -1.54,-6.21 -8.43,-8.92 z m -10.33,3.91 c 0.44,-1.17 2.12,-2.05 2.12,-2.05 0,0 1.61,0.73 2.05,2.05 5.46,0.5 7.81,3.44 8.74,5.43 -0.5,-0.72 -5.78,-3.6 -10.82,-1.57 -5.5,-2.69 -10.33,1.8 -10.33,1.8 1.72,-5.76 8.49,-5.54 8.24,-5.66 z m 2.12,11.66 c -2.54,-3.62 -8.44,-2.54 -10.51,-0.64 3.16,-4.87 9.18,-4.26 9.18,-4.26 l 1.33,-1.25 c 0,0 0.56,0.65 1.16,1.32 0.54,-0.44 6.71,-0.46 9.83,3.8 -0.48,-0.71 -7.14,-3.19 -10.99,1.03 z"
             class="st3"
             inkscape:connector-curvature="0"
             style="fill:#d71921" />
          <path
             id="path24839"
             d="m 139.12,192.47 2.63,0.48 c -0.21,-1.55 -3.76,-5.9 -7.06,-7.33 0,0 1.04,2.18 0.41,2.39 -0.63,0.2 -3.26,-3.27 -3.77,-4.13 0,0 -0.11,1.82 1.49,3.69 1.46,1.71 3.89,0.54 6.3,4.9 z"
             class="st2"
             inkscape:connector-curvature="0"
             style="fill:#ffffff" />
          <path
             id="path24841"
             d="m 154.04,192.65 -2.48,0.31 c 0.45,-1.45 4.29,-6.02 6.91,-7.16 0,0 -1.04,2.18 -0.41,2.39 0.63,0.2 3.12,-3.13 3.63,-4 0,0 0.25,1.69 -1.35,3.56 -1.46,1.71 -3.89,0.54 -6.3,4.9 z"
             class="st2"
             inkscape:connector-curvature="0"
             style="fill:#ffffff" />
          <path
             id="path24843"
             d="m 133.71,193.7 c -0.04,-0.03 -0.09,-0.07 -0.14,-0.11 -0.03,-0.02 -0.05,-0.04 -0.08,-0.07 -0.77,-0.66 -2.22,-2.34 -2.05,-5.55 0,0 -0.58,-2.82 -1.98,-4.97 0,0 -1.1,6.09 1.9,8.34 0,0 -0.46,3.08 2.18,3.74 0,0 1.86,0.69 4.58,-0.52 -0.55,0.21 -3.01,0.15 -4.41,-0.86 z"
             class="st2"
             inkscape:connector-curvature="0"
             style="fill:#ffffff" />
          <path
             id="path24845"
             d="m 173.67,183.09 c 1.63,3.29 0.93,6.23 6.53,11.23 -0.3,0.2 -1.12,-0.2 -1.52,-0.2 2.74,3.15 2.44,7.82 2.24,9.04 -0.51,0.1 -2.03,-0.81 -2.54,-1.02 -0.51,-0.2 1.02,6.1 -2.44,11.48 -0.41,-0.81 -0.91,-0.81 -1.12,-1.83 -0.22,0.1 -0.47,0.23 -0.73,0.39 -3.28,1.93 -9.21,8.07 -11.56,12.11 -0.71,-0.3 -1.52,-0.81 -1.52,-0.81 0,0 -0.31,1.69 -1.5,3.92 -0.8,1.5 -3.55,4.06 -3.55,4.06 0.31,-2.55 1.71,-7.3 1.39,-9.81 6.1,-2.44 11.69,-8.84 12.8,-10.47 -0.81,0.41 -2.13,0.2 -2.44,0.51 0.13,-0.13 1.89,-1.87 3.74,-4.15 1.83,-2.26 3.75,-5.05 4.29,-7.33 0,0 -4.47,-5.79 -4.57,-10.87 -0.05,-2.29 -0.73,-5.1 -1.93,-7.58 -0.78,-1.62 -1.79,-3.11 -2.98,-4.2 5.42,1.39 7.38,5.48 7.41,5.53 z"
             class="st2"
             inkscape:connector-curvature="0"
             style="fill:#ffffff" />
        </g>
        <g
           id="g24885">
          <g
             id="g24881">
            <path
               id="path24849"
               d="m 99.75,176.08 c 0,0 1.1,3.22 0.87,5.85 -0.22,2.56 -2.37,5.24 -2.37,5.24 0,0 3.65,-2.22 3.76,-2.24 0.12,-0.02 0.52,-4.57 0.6,-4.69 0.07,-0.12 -2.51,-4.33 -2.51,-4.33 z"
               class="st2"
               inkscape:connector-curvature="0"
               style="fill:#ffffff" />
            <path
               id="path24851"
               d="m 86.77,197.11 -1.44,0.46 -1.15,1.05 c 0,0 2.02,0.73 3.26,-0.77 0.23,-0.28 0.39,-0.53 0.5,-0.76"
               class="st3"
               inkscape:connector-curvature="0"
               style="fill:#d71921" />
            <path
               id="path24853"
               d="m 86.77,197.11 -0.65,-0.34 1.79,-1.12 c 0,0 0.5,0.46 0.02,1.44 0,0 -0.49,0.24 -1.16,0.02 z"
               class="st2"
               inkscape:connector-curvature="0"
               style="fill:#ffffff" />
            <path
               id="path24855"
               d="m 76.54,209.67 c 0.8,-0.4 4.94,-4 4.63,-3.81 -0.32,0.19 -5.1,1.79 -4.81,1.67 0.29,-0.12 3.83,-3.41 3.83,-3.41 l -2.82,-0.34 -5.66,1.74 c -0.19,0.88 0.63,2.71 -1.39,5.17 0.74,1.33 3.44,2.17 3.44,2.17 0,0 2.45,0.15 6.32,-2.09 0.34,-0.79 0.86,-1.58 1.64,-2.3 -0.73,0.42 -5.98,1.6 -5.18,1.2 z"
               class="st2"
               inkscape:connector-curvature="0"
               style="fill:#ffffff" />
            <path
               id="path24857"
               d="m 98.7,173.93 c -2.22,0.68 -2.75,3.53 -2.86,4.49 -0.12,0.96 0.07,2.2 -1.9,4.61 2.68,-1.32 6,-5.4 6.03,-6.24 0.79,1.11 2.84,2.85 1.59,7.67 l 2.74,-0.62 c -0.01,-0.01 1.09,-5.55 -5.6,-9.91 z"
               class="st3"
               inkscape:connector-curvature="0"
               style="fill:#d71921" />
            <path
               id="path24859"
               d="m 76.38,214.2 c 0.52,1.04 2.16,3.48 5.63,4.18 -2.08,-2.34 -2.26,-5.72 -2.26,-5.72 0,0 -2.24,1.42 -3.37,1.54 z"
               class="st2"
               inkscape:connector-curvature="0"
               style="fill:#ffffff" />
            <path
               id="path24861"
               d="m 92.49,229.24 c -0.79,-0.63 -2.58,-2.48 -2.56,-5.54 1.62,2.19 4.47,2.98 4.47,2.98 0,0 -0.75,2.04 -1.91,2.56 z"
               class="st2"
               inkscape:connector-curvature="0"
               style="fill:#ffffff" />
            <path
               id="path24863"
               d="m 95.05,213.32 -1.68,3.53 0.1,-3.82 c 0,0 -1.82,1.12 -1.82,5.48 0,2.64 0.77,4.48 2.88,5.41 1.87,-0.65 3.69,-4.47 3.69,-4.47 -2.64,-1.75 -3.17,-6.13 -3.17,-6.13 z"
               class="st3"
               inkscape:connector-curvature="0"
               style="fill:#d71921" />
            <path
               id="path24865"
               d="m 68.99,206.34 -0.79,1.39 1.6,2.28 c 0.97,-0.81 0.98,-1.82 1.12,-3.68 0,0 -0.6,-0.06 -1.93,0.01 z"
               class="st3"
               inkscape:connector-curvature="0"
               style="fill:#d71921" />
            <g
               id="g24869">
              <path
                 id="path24867"
                 d="m 104.94,197.09 c -0.15,2.48 -0.58,7.13 4.63,10.94 -1.97,-1.97 -3.66,-10.29 0.07,-14.55 1.9,-2.17 3.25,-8.55 6.16,-11.47 0.14,-0.14 0.27,-0.4 0.27,-0.4 -5.19,2.78 -9.43,5.58 -9.16,5.14 0.67,-1.09 3.33,-6.16 7.58,-8.21 -1.52,0.03 -10.78,3.16 -15.69,7.89 0.08,-0.6 -0.08,-1.91 0.4,-2.91 -0.12,0.07 -7.53,2.94 -12.22,7.08 0.04,-0.46 0.44,-1.55 0.66,-1.86 -5.26,1.8 -9.87,8.57 -9.87,8.57 0,0 0.28,0.9 0.3,1.24 -0.02,0.01 -0.03,0.02 -0.05,0.03 -0.2,0.12 -0.53,0.35 -0.53,0.35 -5.16,3.4 -8.14,6.7 -8.14,6.7 l 2.35,-0.1 5.63,-1.74 c 0.71,-0.19 4.53,-1.38 5.1,-1.79 1.45,2.85 10.78,4.48 10.97,4.42 -2.54,1.02 -5.54,1.11 -5.85,1.09 l -6.63,3.31 c 0,0 7.46,-3.14 13.93,0.55 2.93,1.92 4.79,3.84 4.84,6.37 l 0.37,-0.63 c -0.29,-3.16 -1.38,-5.72 -7.46,-8.8 0,0 4.6,-0.1 8.91,1.35 -0.85,-2.21 -0.35,-6.78 0.48,-9.43 1.49,-4.77 0.05,-9.35 -1.99,-12.96 1.36,1.23 5.22,5.29 4.94,9.82 z m -17.61,3.6 c -4.46,-1.07 -7.7,-0.24 -8.2,-0.02 l 6.2,-6.21 0.06,1.85 c 1.67,-2.75 2.04,-3.25 4.94,-4.31 0.55,2.59 0.51,5.65 -3,8.69 z m 10.91,-10.75 c -1,1.11 -2.13,3.99 -1.82,5.22 -2.95,2.01 -3.14,8.01 -3.14,8.01 -0.83,-2.32 -0.53,-7.86 0.03,-9.07 0.56,-1.2 5.93,-5.28 4.93,-4.16 z"
                 class="st3"
                 inkscape:connector-curvature="0"
                 style="fill:#d71921" />
            </g>
            <g
               id="g24873">
              <path
                 id="path24871"
                 d="m 107.32,213.26 c 0,0 1.93,-0.33 4.85,1.83 -0.93,-1.14 -1.66,-5.85 -1.66,-5.85 -4.79,2.03 -7.04,-6.74 -6.97,-7.71 0,0 -1.76,5.97 1.48,12.09 0.02,0.05 -1.98,-1.93 -6.36,-2.83 0,0 5.72,6.32 1.28,8 0,0 0,0.01 0.01,0.04 2.63,7.64 -2.92,10.11 -2.92,10.11 l 0.22,-3.53 c -0.7,0.77 -0.81,3.67 -4.35,4.67 -0.63,1.58 0.57,3.5 0.57,3.5 l 0.79,-0.99 c 0,0 2.67,1.83 2.84,2.05 1.06,-1.02 5.07,-4.16 7.23,-5.33 -0.04,-1.09 -0.11,-4.55 0.32,-6.73 1.15,-4.07 3.76,-5.06 5.53,-4.84 -0.32,-1.09 -0.83,-3.33 -2.86,-4.48 z"
                 class="st2"
                 inkscape:connector-curvature="0"
                 style="fill:#ffffff" />
            </g>
            <path
               id="path24875"
               d="m 79.11,200.69 c 0.2,-3.18 2.7,-6.87 6.99,-9.13 -0.73,0.73 -1.24,1.43 -1.2,2.03 0,0 4.58,-5.11 13.36,-5.11 -9.39,2.77 -12.9,7.85 -12.9,7.85 l -0.06,-1.85 z"
               class="st2"
               inkscape:connector-curvature="0"
               style="fill:#ffffff" />
            <path
               id="path24877"
               d="m 79.11,200.69 c 0,0 2.14,-1.52 8.22,0 0,-0.05 -3.69,0.84 -3.69,0.84 -0.61,-0.56 -2.89,-1.07 -4.53,-0.84 z"
               class="st2"
               inkscape:connector-curvature="0"
               style="fill:#ffffff" />
            <path
               id="path24879"
               d="m 100.49,197.62 -4.07,-2.46 c -1.74,0.79 -2.92,3.05 -3.14,8.01 0,0 1.89,-3.73 7.21,-5.55 z"
               class="st2"
               inkscape:connector-curvature="0"
               style="fill:#ffffff" />
          </g>
          <path
             id="path24883"
             d="m 108.69,214.51 c 0,0 4.94,1.63 6.15,4.27 3.51,0.57 10.64,5.73 11.96,8.79 0,0 0.04,-5.9 -10.27,-11.24 0,0 -4.85,-2.37 -6.03,-7.08 0,0 -2.47,3.6 -3.89,3.25 -0.63,-0.15 -3.06,3.65 1.09,4.57 -0.27,-0.82 2.2,-1.7 0.99,-2.56 z"
             class="st2"
             inkscape:connector-curvature="0"
             style="fill:#ffffff" />
        </g>
        <g
           id="g24923">
          <g
             id="g24919">
            <path
               id="path24887"
               d="m 192.27,176.08 c 0,0 -1.1,3.22 -0.87,5.85 0.22,2.56 2.37,5.24 2.37,5.24 0,0 -3.65,-2.22 -3.76,-2.24 -0.12,-0.02 -0.52,-4.57 -0.6,-4.69 -0.07,-0.12 2.51,-4.33 2.51,-4.33 z"
               class="st2"
               inkscape:connector-curvature="0"
               style="fill:#ffffff" />
            <path
               id="path24889"
               d="m 205.25,197.11 1.44,0.46 1.15,1.05 c 0,0 -2.02,0.73 -3.26,-0.77 -0.23,-0.28 -0.39,-0.53 -0.5,-0.76"
               class="st3"
               inkscape:connector-curvature="0"
               style="fill:#d71921" />
            <path
               id="path24891"
               d="m 205.25,197.11 0.65,-0.34 -1.79,-1.12 c 0,0 -0.5,0.46 -0.02,1.44 0,0 0.49,0.24 1.16,0.02 z"
               class="st2"
               inkscape:connector-curvature="0"
               style="fill:#ffffff" />
            <path
               id="path24893"
               d="m 215.48,209.67 c -0.8,-0.4 -4.94,-4 -4.63,-3.81 0.32,0.19 5.1,1.79 4.81,1.67 -0.29,-0.12 -3.83,-3.41 -3.83,-3.41 l 2.82,-0.34 5.66,1.74 c 0.19,0.88 -0.63,2.71 1.39,5.17 -0.74,1.33 -3.44,2.17 -3.44,2.17 0,0 -2.45,0.15 -6.32,-2.09 -0.34,-0.79 -0.86,-1.58 -1.64,-2.3 0.73,0.42 5.98,1.6 5.18,1.2 z"
               class="st2"
               inkscape:connector-curvature="0"
               style="fill:#ffffff" />
            <path
               id="path24895"
               d="m 193.32,173.93 c 2.22,0.68 2.75,3.53 2.86,4.49 0.12,0.96 -0.07,2.2 1.9,4.61 -2.68,-1.32 -6,-5.4 -6.03,-6.24 -0.79,1.11 -2.84,2.85 -1.59,7.67 l -2.74,-0.62 c 0.01,-0.01 -1.09,-5.55 5.6,-9.91 z"
               class="st3"
               inkscape:connector-curvature="0"
               style="fill:#d71921" />
            <path
               id="path24897"
               d="m 215.64,214.2 c -0.52,1.04 -2.16,3.48 -5.63,4.18 2.08,-2.34 2.26,-5.72 2.26,-5.72 0,0 2.24,1.42 3.37,1.54 z"
               class="st2"
               inkscape:connector-curvature="0"
               style="fill:#ffffff" />
            <path
               id="path24899"
               d="m 199.53,229.24 c 0.79,-0.63 2.58,-2.48 2.56,-5.54 -1.62,2.19 -4.47,2.98 -4.47,2.98 0,0 0.75,2.04 1.91,2.56 z"
               class="st2"
               inkscape:connector-curvature="0"
               style="fill:#ffffff" />
            <path
               id="path24901"
               d="m 196.97,213.32 1.68,3.53 -0.1,-3.82 c 0,0 1.82,1.12 1.82,5.48 0,2.64 -0.77,4.48 -2.88,5.41 -1.87,-0.65 -3.69,-4.47 -3.69,-4.47 2.64,-1.75 3.17,-6.13 3.17,-6.13 z"
               class="st3"
               inkscape:connector-curvature="0"
               style="fill:#d71921" />
            <path
               id="path24903"
               d="m 223.03,206.34 0.79,1.39 -1.6,2.28 c -0.97,-0.81 -0.98,-1.82 -1.12,-3.68 0,0 0.6,-0.06 1.93,0.01 z"
               class="st3"
               inkscape:connector-curvature="0"
               style="fill:#d71921" />
            <g
               id="g24907">
              <path
                 id="path24905"
                 d="m 187.08,197.09 c 0.15,2.48 0.58,7.13 -4.63,10.94 1.97,-1.97 3.66,-10.29 -0.07,-14.55 -1.9,-2.17 -3.25,-8.55 -6.16,-11.47 -0.14,-0.14 -0.27,-0.4 -0.27,-0.4 5.19,2.78 9.43,5.58 9.16,5.14 -0.67,-1.09 -3.33,-6.16 -7.58,-8.21 1.52,0.03 10.78,3.16 15.69,7.89 -0.08,-0.6 0.08,-1.91 -0.4,-2.91 0.12,0.07 7.53,2.94 12.22,7.08 -0.04,-0.46 -0.44,-1.55 -0.66,-1.86 5.26,1.8 9.87,8.57 9.87,8.57 0,0 -0.27,0.9 -0.3,1.24 0.02,0.01 0.03,0.02 0.05,0.03 0.2,0.12 0.53,0.35 0.53,0.35 5.16,3.4 8.14,6.7 8.14,6.7 l -2.35,-0.1 -5.63,-1.74 c -0.71,-0.19 -4.53,-1.38 -5.1,-1.79 -1.45,2.85 -10.78,4.48 -10.97,4.42 2.54,1.02 5.54,1.11 5.85,1.09 l 6.63,3.31 c 0,0 -7.46,-3.14 -13.93,0.55 -2.93,1.92 -4.79,3.84 -4.84,6.37 l -0.37,-0.63 c 0.29,-3.16 1.38,-5.72 7.46,-8.8 0,0 -4.6,-0.1 -8.91,1.35 0.85,-2.21 0.35,-6.78 -0.48,-9.43 -1.49,-4.77 -0.05,-9.35 1.99,-12.96 -1.35,1.23 -5.22,5.29 -4.94,9.82 z m 17.61,3.6 c 4.46,-1.07 7.7,-0.24 8.2,-0.02 l -6.2,-6.21 -0.06,1.85 c -1.67,-2.75 -2.04,-3.25 -4.94,-4.31 -0.55,2.59 -0.51,5.65 3,8.69 z m -10.91,-10.75 c 1,1.11 2.13,3.99 1.82,5.22 2.95,2.01 3.14,8.01 3.14,8.01 0.83,-2.32 0.53,-7.86 -0.03,-9.07 -0.56,-1.2 -5.93,-5.28 -4.93,-4.16 z"
                 class="st3"
                 inkscape:connector-curvature="0"
                 style="fill:#d71921" />
            </g>
            <g
               id="g24911">
              <path
                 id="path24909"
                 d="m 184.7,213.26 c 0,0 -1.93,-0.33 -4.85,1.83 0.93,-1.14 1.66,-5.85 1.66,-5.85 4.79,2.03 7.04,-6.74 6.97,-7.71 0,0 1.76,5.97 -1.48,12.09 -0.02,0.05 1.98,-1.93 6.36,-2.83 0,0 -5.72,6.32 -1.28,8 0,0 0,0.01 -0.01,0.04 -2.63,7.64 2.92,10.11 2.92,10.11 l -0.22,-3.53 c 0.7,0.77 0.81,3.67 4.35,4.67 0.63,1.58 -0.57,3.5 -0.57,3.5 l -0.79,-0.99 c 0,0 -2.67,1.83 -2.84,2.05 -1.06,-1.02 -5.07,-4.16 -7.23,-5.33 0.04,-1.09 0.11,-4.55 -0.32,-6.73 -1.15,-4.07 -3.76,-5.06 -5.53,-4.84 0.32,-1.09 0.83,-3.33 2.86,-4.48 z"
                 class="st2"
                 inkscape:connector-curvature="0"
                 style="fill:#ffffff" />
            </g>
            <path
               id="path24913"
               d="m 212.91,200.69 c -0.2,-3.18 -2.7,-6.87 -6.99,-9.13 0.73,0.73 1.24,1.43 1.2,2.03 0,0 -4.58,-5.11 -13.36,-5.11 9.39,2.77 12.9,7.85 12.9,7.85 l 0.06,-1.85 z"
               class="st2"
               inkscape:connector-curvature="0"
               style="fill:#ffffff" />
            <path
               id="path24915"
               d="m 212.91,200.69 c 0,0 -2.14,-1.52 -8.22,0 0,-0.05 3.69,0.84 3.69,0.84 0.61,-0.56 2.89,-1.07 4.53,-0.84 z"
               class="st2"
               inkscape:connector-curvature="0"
               style="fill:#ffffff" />
            <path
               id="path24917"
               d="m 191.53,197.62 4.07,-2.46 c 1.74,0.79 2.92,3.05 3.14,8.01 0,0 -1.89,-3.73 -7.21,-5.55 z"
               class="st2"
               inkscape:connector-curvature="0"
               style="fill:#ffffff" />
          </g>
          <path
             id="path24921"
             d="m 183.33,214.51 c 0,0 -4.94,1.63 -6.15,4.27 -3.51,0.57 -10.64,5.73 -11.96,8.79 0,0 -0.04,-5.9 10.27,-11.24 0,0 4.85,-2.37 6.03,-7.08 0,0 2.47,3.6 3.89,3.25 0.63,-0.15 3.06,3.65 -1.09,4.57 0.27,-0.82 -2.2,-1.7 -0.99,-2.56 z"
             class="st2"
             inkscape:connector-curvature="0"
             style="fill:#ffffff" />
        </g>
      </g>
    </g>
  </g>
</svg>
